<?xml version="1.0" standalone="no"?>
<!DOCTYPE svg PUBLIC "-//W3C//DTD SVG 20010904//EN"
 "http://www.w3.org/TR/2001/REC-SVG-20010904/DTD/svg10.dtd">
<svg version="1.0" xmlns="http://www.w3.org/2000/svg"
 width="225.000000pt" height="225.000000pt" viewBox="0 0 225.000000 225.000000"
 preserveAspectRatio="xMidYMid meet">
<metadata>
Created by potrace 1.11, written by Peter Selinger 2001-2013
</metadata>
<g transform="translate(0.000000,225.000000) scale(0.100000,-0.100000)"
fill="#000000" stroke="none">
<path d="M271 1509 l-83 -51 31 -19 31 -19 -97 -157 c-151 -247 -138 -222
-120 -241 9 -9 18 -14 21 -11 2 2 56 91 121 196 l117 193 28 -15 c16 -8 32
-15 35 -15 3 0 5 43 4 95 -1 52 -2 95 -3 95 -1 0 -39 -23 -85 -51z"/>
<path d="M1060 1471 c-85 -27 -162 -112 -175 -192 -16 -95 45 -203 140 -248
65 -30 190 -27 244 8 20 13 -28 94 -49 84 -8 -5 -45 -8 -82 -8 -60 0 -70 3
-97 29 -118 113 9 286 163 222 l33 -14 21 44 22 44 -33 16 c-36 19 -148 28
-187 15z"/>
<path d="M1320 1240 l0 -230 130 0 130 0 0 45 0 44 -77 3 -78 3 -3 48 -3 47
80 0 81 0 0 45 0 45 -80 0 -80 0 0 45 0 45 80 0 80 0 0 45 0 45 -130 0 -130 0
0 -230z"/>
<path d="M1640 1240 l0 -230 130 0 130 0 0 45 0 45 -75 0 -75 0 0 185 0 185
-55 0 -55 0 0 -230z"/>
<path d="M1960 1240 l0 -230 130 0 130 0 0 45 0 45 -80 0 -80 0 0 185 0 185
-50 0 -50 0 0 -230z"/>
<path d="M1426 910 c-34 -84 -5 -255 36 -214 4 3 0 21 -8 39 -18 44 -18 111 0
163 14 38 12 52 -5 52 -4 0 -14 -18 -23 -40z"/>
<path d="M2138 945 c-3 -3 1 -22 8 -43 17 -49 17 -125 0 -167 -12 -28 -12 -34
-1 -39 39 -15 61 150 28 219 -16 34 -24 41 -35 30z"/>
<path d="M1920 847 c0 -94 14 -117 75 -117 61 0 75 23 75 117 0 66 -2 73 -20
73 -18 0 -20 -7 -20 -64 0 -45 -5 -69 -16 -80 -8 -9 -17 -16 -19 -16 -2 0 -11
7 -19 16 -11 11 -16 35 -16 80 0 57 -2 64 -20 64 -18 0 -20 -7 -20 -73z"/>
<path d="M930 820 c0 -83 1 -90 20 -90 19 0 20 7 20 90 0 83 -1 90 -20 90 -19
0 -20 -7 -20 -90z"/>
<path d="M1040 820 c0 -83 1 -90 20 -90 19 0 20 7 20 90 0 83 -1 90 -20 90
-19 0 -20 -7 -20 -90z"/>
<path d="M1120 895 c0 -9 9 -15 25 -15 24 0 25 -2 25 -75 0 -68 2 -75 20 -75
18 0 20 7 20 75 0 68 2 75 20 75 11 0 20 7 20 15 0 12 -14 15 -65 15 -51 0
-65 -3 -65 -15z"/>
<path d="M1540 820 l0 -90 53 0 c29 0 58 5 65 12 19 19 14 55 -9 71 -13 9 -16
17 -10 22 15 8 14 48 -1 63 -7 7 -31 12 -55 12 l-43 0 0 -90z m68 43 c-5 -25
-28 -28 -28 -4 0 12 6 21 16 21 9 0 14 -7 12 -17z m-4 -59 c24 -9 20 -44 -4
-44 -15 0 -20 7 -20 25 0 27 1 28 24 19z"/>
<path d="M1730 820 c0 -83 1 -90 20 -90 16 0 20 7 20 35 0 32 2 35 30 35 28 0
30 -3 30 -35 0 -28 4 -35 20 -35 19 0 20 7 20 90 0 83 -1 90 -20 90 -16 0 -20
-7 -20 -35 0 -32 -2 -35 -30 -35 -28 0 -30 3 -30 35 0 28 -4 35 -20 35 -19 0
-20 -7 -20 -90z"/>
</g>
</svg>
