<?xml version="1.0" standalone="no"?>
<!DOCTYPE svg PUBLIC "-//W3C//DTD SVG 20010904//EN"
 "http://www.w3.org/TR/2001/REC-SVG-20010904/DTD/svg10.dtd">
<svg version="1.0" xmlns="http://www.w3.org/2000/svg"
 width="371.000000pt" height="371.000000pt" viewBox="0 0 371.000000 371.000000"
 preserveAspectRatio="xMidYMid meet">
<metadata>
Created by potrace 1.11, written by Peter Selinger 2001-2013
</metadata>
<g transform="translate(0.000000,371.000000) scale(0.100000,-0.100000)"
fill="#000000" stroke="none">
<path d="M1480 3661 c-34 -25 -133 -86 -140 -86 -3 -1 -23 -12 -45 -26 -81
-51 -166 -104 -183 -114 -10 -5 -49 -30 -87 -55 -39 -24 -72 -45 -75 -45 -3
-1 -31 -19 -64 -40 -32 -22 -66 -45 -75 -50 -30 -19 -20 -31 67 -76 48 -24
102 -54 120 -66 18 -12 38 -23 44 -25 6 -2 -21 -57 -61 -122 -39 -65 -71 -123
-71 -127 0 -5 -4 -9 -8 -9 -4 0 -21 -25 -37 -55 -17 -30 -33 -55 -37 -55 -5 0
-8 -6 -8 -14 0 -7 -11 -30 -25 -50 -13 -20 -21 -36 -18 -36 4 0 0 -6 -9 -12
-17 -15 -148 -223 -148 -237 0 -5 -3 -11 -7 -13 -10 -4 -42 -57 -50 -80 -3
-10 -9 -18 -14 -18 -5 0 -9 -4 -9 -9 0 -6 -17 -38 -38 -73 -21 -35 -72 -119
-113 -188 -40 -69 -78 -128 -84 -132 -7 -5 -7 -8 0 -8 7 0 7 -3 0 -8 -5 -4
-19 -23 -29 -42 -11 -19 -26 -41 -33 -48 -7 -8 -11 -18 -8 -23 4 -5 2 -9 -2
-9 -5 0 -17 -13 -26 -30 -10 -16 -23 -35 -30 -42 -14 -16 -34 -51 -73 -125
-15 -29 -31 -53 -36 -53 -5 0 -7 -4 -3 -9 3 -5 1 -12 -5 -16 -5 -3 -10 -10
-10 -14 0 -15 186 -121 193 -110 26 38 57 91 57 99 0 5 4 10 9 10 5 0 11 8 15
18 3 9 22 44 41 77 20 33 38 68 41 78 4 9 9 17 13 17 3 0 19 25 36 55 16 30
33 55 38 55 4 0 5 5 2 10 -3 6 1 13 9 16 9 3 14 9 11 14 -2 4 5 17 16 28 10
12 18 24 17 26 -2 3 6 16 17 28 10 13 17 24 15 24 -3 1 13 30 36 65 22 35 62
102 89 149 26 47 56 94 66 105 10 11 25 36 33 55 8 19 23 44 33 55 10 11 27
36 37 55 10 19 32 54 48 78 15 24 28 45 28 48 0 3 13 24 28 47 15 23 36 59 47
80 11 20 23 37 27 37 5 0 8 6 8 13 0 7 34 68 75 136 41 67 75 125 75 128 0 2
8 15 18 28 18 22 19 22 53 6 19 -10 41 -21 49 -26 8 -6 17 -10 20 -10 16 -1
70 -29 70 -36 0 -5 3 -8 8 -7 4 1 30 -10 59 -25 29 -15 55 -27 59 -27 4 0 3
109 -1 243 -12 394 -16 530 -16 575 -1 47 -10 51 -49 23z"/>
<path d="M2364 3413 c-25 -3 -33 -10 -39 -31 -4 -15 -9 -195 -12 -399 -5 -370
-5 -373 15 -373 11 0 22 -5 24 -12 3 -9 132 -12 536 -12 546 1 566 2 595 39 9
12 3 698 -7 740 -4 17 -12 35 -17 40 -10 10 -1027 17 -1095 8z"/>
<path d="M1212 2171 c-57 -5 -77 -10 -88 -25 -11 -16 -14 -77 -13 -330 1 -171
4 -340 8 -376 6 -60 8 -65 31 -68 14 -2 32 -5 40 -8 14 -5 2109 -5 2201 0 26
1 53 9 61 17 27 26 32 90 34 414 1 294 0 321 -16 337 -10 9 -20 23 -22 30 -4
11 -205 13 -1084 14 -593 1 -1112 -2 -1152 -5z"/>
<path d="M220 949 c-41 -3 -71 -6 -66 -7 5 -1 -1 -14 -15 -28 l-24 -26 -3
-321 c-4 -356 -1 -398 31 -427 21 -20 39 -20 1648 -20 1783 0 1680 -3 1692 58
3 15 6 173 6 352 0 361 -3 388 -54 405 -16 5 -32 12 -35 15 -7 7 -3087 6
-3180 -1z"/>
</g>
</svg>
